<?xml version="1.0" encoding="utf-8"?>
<?xml-stylesheet type="text/xsl" href="rss1.xsl"?>
<rss version="2.0" xmlns:atom="http://www.w3.org/2005/Atom" xmlns:content="http://purl.org/rss/1.0/modules/content/" xmlns:dc="http://purl.org/dc/elements/1.1/" xmlns:media="http://search.yahoo.com/mrss/">
<channel>
 <title>Getty</title>
 <link>http://www.gettyimg.com/</link>
 <atom:link href="http://www.gettyimg.com/" rel="self" type="application/rss+xml" />

 
                <item>
                <title><![CDATA[【Albums (lossless)】WAV - Charli XCX - BRAT [CDRip WAV 16bit/1411kpbs]]]></title>
                <link><![CDATA[https://sharemania.us/threads/charli-xcx-brat-cdrip-wav-16bit-1411kpbs.246497/]]></link>
                <description><![CDATA[<article>
<blockquote class="messageText SelectQuoteContainer ugc baseHtml">
<div style="text-align: center"><img src="https://is1-ssl.mzstatic.com/image/thumb/Video211/v4/93/01/d3/9301d31b-3c90-8f26-44c9-a403c186cbac/Job70a1c5af-b67a-4cf3-a2d6-dc032483f151-169441773-PreviewImage_Preview_Image_Intermediate_nonvideo_sdr_329793320_1793175885-Time1717534608063.png/1000x1000bb.jpeg" class="bbCodeImage LbImage" alt="[​IMG]" data-url="https://is1-ssl.mzstatic.com/image/thumb/Video211/v4/93/01/d3/9301d31b-3c90-8f26-44c9-a403c186cbac/Job70a1c5af-b67a-4cf3-a2d6-dc032483f151-169441773-PreviewImage_Preview_Image_Intermediate_nonvideo_sdr_329793320_1793175885-Time1717534608063.png/1000x1000bb.jpeg" style=""> <br>
<br>
<div class="bbCodeBlock bbCodeVfcHH HiddenContent">
<div class="attribution type">Hidden Content:</div>
<blockquote>You must reply before you can see the hidden data contained here.</blockquote>
</div></div>
<div class="messageTextEndMarker">&nbsp;</div>
</blockquote>
</article>]]></description>
                <author><![CDATA[aove]]></author>
                </item>

                
                <item>
                <title><![CDATA[【HD Live Performances】HDTV - Detonautas - João Rock 2024 1080i HDTV MP2 H.264-JL92]]></title>
                <link><![CDATA[https://sharemania.us/threads/detonautas-jo%C3%A3o-rock-2024-1080i-hdtv-mp2-h-264-jl92.246499/]]></link>
                <description><![CDATA[<article>
<blockquote class="messageText SelectQuoteContainer ugc baseHtml">
THANK YOU
<div class="messageTextEndMarker">&nbsp;</div>
</blockquote>
</article>]]></description>
                <author><![CDATA[itunesboy]]></author>
                </item>

                
                <item>
                <title><![CDATA[【HD Live Performances】HDTV - Samuel Rosa - João Rock 2024 1080i HDTV MP2 H.264-JL92]]></title>
                <link><![CDATA[https://sharemania.us/threads/samuel-rosa-jo%C3%A3o-rock-2024-1080i-hdtv-mp2-h-264-jl92.246500/]]></link>
                <description><![CDATA[<article>
<blockquote class="messageText SelectQuoteContainer ugc baseHtml">
thanks!
<div class="messageTextEndMarker">&nbsp;</div>
</blockquote>
</article>]]></description>
                <author><![CDATA[itunesboy]]></author>
                </item>

                
                <item>
                <title><![CDATA[【Requests】[REQ AUD] - Is not]]></title>
                <link><![CDATA[https://sharemania.us/threads/is-not.246498/]]></link>
                <description><![CDATA[<article>
<blockquote class="messageText SelectQuoteContainer ugc baseHtml">
<img src="https://i.ibb.co/7Vy7vQT/Joao-Rock-2024-Detonautas-1080i-HDTV-MP2-H-264-JL92-ts.png" class="bbCodeImage LbImage" alt="[​IMG]" data-url="https://i.ibb.co/7Vy7vQT/Joao-Rock-2024-Detonautas-1080i-HDTV-MP2-H-264-JL92-ts.png" style=""><br>
<div class="ToggleTriggerAnchor bbCodeSpoilerContainer">
<button type="button" class="button bbCodeSpoilerButton ToggleTrigger Tooltip JsOnly" data-target="> .SpoilerTarget"><span>Spoiler: <span class="SpoilerTitle">MediaInfo</span></span></button>
<div class="SpoilerTarget bbCodeSpoilerText">
<div class="bbCodeBlock bbCodeCode">
<div class="type">Code:</div>
<pre>General
ID                                       : 1 (0x1)
Format                                   : MPEG-TS
File size                                : 2.27 GiB
Duration                                 : 56 min 57 s
Overall bit rate mode                    : Variable
Overall bit rate                         : 5 717 kb/s
Frame rate                               : 29.970 FPS

Video
ID                                       : 256 (0x100)
Menu ID                                  : 1 (0x1)
Format                                   : AVC
Format/Info                              : Advanced Video Codec
Format profile                           : High@L4
Format settings                          : CABAC / 4 Ref Frames
Format settings, CABAC                   : Yes
Format settings, Reference frames        : 4 frames
Codec ID                                 : 27
Duration                                 : 56 min 57 s
Bit rate                                 : 4 659 kb/s
Width                                    : 1 920 pixels
Height                                   : 1 080 pixels
Display aspect ratio                     : 16:9
Active Format Description                : Full frame 16:9 image
Frame rate                               : 29.970 (30000/1001) FPS
Color space                              : YUV
Chroma subsampling                       : 4:2:0
Bit depth                                : 8 bits
Scan type                                : Interlaced
Scan type, store method                  : Separated fields
Scan order                               : Top Field First
Bits/(Pixel*Frame)                       : 0.075
Stream size                              : 1.85 GiB (81%)
Color range                              : Limited
Color primaries                          : BT.709
Transfer characteristics                 : BT.709
Matrix coefficients                      : BT.709

Audio #1
ID                                       : 257 (0x101)
Menu ID                                  : 1 (0x1)
Format                                   : MPEG Audio
Format version                           : Version 1
Format profile                           : Layer 2
Codec ID                                 : 3
Duration                                 : 56 min 57 s
Bit rate mode                            : Constant
Bit rate                                 : 384 kb/s
Channel(s)                               : 2 channels
Sampling rate                            : 48.0 kHz
Frame rate                               : 41.667 FPS (1152 SPF)
Compression mode                         : Lossy
Delay relative to video                  : 13 ms
Stream size                              : 156 MiB (7%)
Language                                 : Portuguese

Audio #2
ID                                       : 258 (0x102)
Menu ID                                  : 1 (0x1)
Format                                   : MPEG Audio
Format version                           : Version 1
Format profile                           : Layer 2
Codec ID                                 : 3
Duration                                 : 56 min 57 s
Bit rate mode                            : Constant
Bit rate                                 : 384 kb/s
Channel(s)                               : 2 channels
Sampling rate                            : 48.0 kHz
Frame rate                               : 41.667 FPS (1152 SPF)
Compression mode                         : Lossy
Delay relative to video                  : 45 ms
Stream size                              : 156 MiB (7%)
Language                                 : English

Menu
ID                                       : 4096 (0x1000)
Menu ID                                  : 1 (0x1)
Format                                   : AVC / MPEG Audio / MPEG Audio
Duration                                 : 56 min 57 s
List                                     : 256 (0x100) (AVC) / 257 (0x101) (MPEG Audio, Portuguese) / 258 (0x102) (MPEG Audio, English)
Language                                 :  / Portuguese / English
Service name                             : Service01
Service provider                         : FFmpeg
Service type                             : digital television
</pre>
</div></div>
</div>
<div class="bbCodeBlock bbCodeVfcHH HiddenContent">
<div class="attribution type">Hidden Content:</div>
<blockquote>You must reply before you can see the hidden data contained here.</blockquote>
</div>
<div class="messageTextEndMarker">&nbsp;</div>
</blockquote>
</article>]]></description>
                <author><![CDATA[Sunshinebrightmoon]]></author>
                </item>

                </channel></rss>